<?xml version="1.0" standalone="no"?>
<svg viewBox="0 0 200 200" xmlns="http://www.w3.org/2000/svg">
  <path fill="#9EF0F0" d="M49.3,-72.6C63.9,-67.4,75.7,-53.7,82.1,-38C88.4,-22.4,89.1,-4.7,85.4,11.4C81.7,27.5,73.5,42.1,63,55.1C52.5,68.2,39.6,79.7,27,76.3C14.3,73,1.8,54.7,-13.4,48.8C-28.6,42.9,-46.6,49.4,-51.7,44.3C-56.8,39.2,-49.1,22.6,-49,8.4C-48.9,-5.8,-56.5,-17.5,-57.9,-31.4C-59.3,-45.3,-54.5,-61.3,-43.8,-68.3C-33.1,-75.3,-16.5,-73.3,0.4,-74C17.4,-74.6,34.7,-77.8,49.3,-72.6Z" transform="translate(100 100)" />
</svg>
