<?xml version="1.0" standalone="no"?>
<svg viewBox="0 0 200 200" xmlns="http://www.w3.org/2000/svg">
  <path fill="#D0E2FF" d="M25.4,-40.2C35.8,-32.8,49.1,-30.7,60.1,-22.7C71.1,-14.8,79.9,-1,80,12.9C80.1,26.8,71.7,40.8,59.1,46.2C46.6,51.6,29.9,48.4,16.7,48.5C3.4,48.6,-6.5,52.1,-15.5,50.6C-24.6,49,-32.9,42.4,-45.7,35.3C-58.4,28.3,-75.5,20.8,-83.7,7.9C-91.9,-4.9,-91.3,-23.1,-80.6,-32.8C-70,-42.5,-49.4,-43.6,-34.3,-48.9C-19.2,-54.2,-9.6,-63.6,-1.1,-62C7.5,-60.4,15,-47.7,25.4,-40.2Z" transform="translate(100 100)" />
</svg>
