<?xml version="1.0" standalone="no"?>
<svg viewBox=" 0 200 200" xmlns="http://www.w3.org/2000/svg">
  <path fill="#9EF0F0" d="M37.2,-61.5C49.5,-57.4,61.7,-50,71.1,-39.2C80.5,-28.4,87.3,-14.2,84.2,-1.8C81,10.6,68.1,21.2,59,32.7C50,44.1,44.8,56.5,35.7,64.5C26.5,72.6,13.2,76.4,-0.5,77.2C-14.2,78,-28.4,75.9,-40,69.3C-51.7,62.6,-60.8,51.5,-68.1,39.2C-75.5,26.9,-81,13.4,-80.6,0.3C-80.1,-12.9,-73.6,-25.8,-66.9,-39.2C-60.2,-52.5,-53.2,-66.3,-42,-71.1C-30.8,-75.9,-15.4,-71.6,-1.5,-69.1C12.5,-66.5,24.9,-65.6,37.2,-61.5Z" transform="translate(100 100)" />
</svg>
