<?xml version="1.0" standalone="no"?>
<svg viewBox="0 0 200 200" xmlns="http://www.w3.org/2000/svg">
  <path fill="#A7F0BA" d="M45.5,-68.4C60.5,-61.2,75.3,-51.1,78.1,-37.8C81,-24.4,71.9,-7.7,69.4,10C66.8,27.6,70.9,46.3,64.6,59.2C58.4,72.1,41.9,79.4,26.3,79.2C10.7,79,-4,71.4,-19.5,66.7C-34.9,62,-51.1,60.1,-63.3,51.7C-75.5,43.3,-83.7,28.2,-82.1,14.2C-80.4,0.1,-68.8,-13,-61.8,-28.1C-54.7,-43.1,-52.1,-60,-42.5,-69.8C-33,-79.6,-16.5,-82.2,-0.6,-81.2C15.2,-80.2,30.5,-75.7,45.5,-68.4Z" transform="translate(100 100)" />
</svg>
